<?xml version="1.0" standalone="no"?>
<!DOCTYPE svg PUBLIC "-//W3C//DTD SVG 1.1//EN" "http://www.w3.org/Graphics/SVG/1.1/DTD/svg11.dtd" >
<svg xmlns="http://www.w3.org/2000/svg" xmlns:xlink="http://www.w3.org/1999/xlink" version="1.1">
<metadata></metadata>
<defs>
<font id="ace_attorneyregular" horiz-adv-x="1048" >
<font-face units-per-em="2048" ascent="1638" descent="-410" />
<missing-glyph horiz-adv-x="280" />
<glyph horiz-adv-x="0" />
<glyph horiz-adv-x="682" />
<glyph unicode=" "  horiz-adv-x="280" />
<glyph unicode="&#x09;" horiz-adv-x="280" />
<glyph unicode="&#xa0;" horiz-adv-x="280" />
<glyph unicode="!" horiz-adv-x="280" d="M0 0v128h128v-128h-128zM0 384v896h128v-896h-128z" />
<glyph unicode="&#x22;" horiz-adv-x="792" d="M0 896v128h128v-128h-128zM0 1152v256h256v-384h-128v128h-128zM384 896v128h128v-128h-128zM384 1152v256h256v-384h-128v128h-128z" />
<glyph unicode="$" d="M0 128v128h128v128h256v768h128v-128h128v-128h128v-128h128v-384h-128v256h-128v128h-128v-640h-128v-128h-256v128h-128zM640 256v128h128v-128h-128z" />
<glyph unicode="%" horiz-adv-x="1432" d="M0 0v128h128v-128h-128zM0 896v256h128v-256h-128zM128 128v128h128v-128h-128zM128 768v128h256v-128h-256zM128 1152v128h256v-128h-256zM256 256v128h128v-128h-128zM384 384v128h128v-128h-128zM384 896v256h128v-256h-128zM512 512v128h128v-128h-128zM640 640v128 h128v-128h-128zM768 128v256h128v-256h-128zM768 768v128h128v-128h-128zM896 0v128h256v-128h-256zM896 384v128h256v-128h-256zM896 896v128h128v-128h-128zM1024 1024v128h128v-128h-128zM1152 128v256h128v-256h-128zM1152 1152v128h128v-128h-128z" />
<glyph unicode="&#x26;" horiz-adv-x="1304" d="M0 128v384h128v-384h-128zM128 0v128h512v-128h-512zM128 512v128h128v-128h-128zM128 768v384h128v-384h-128zM256 640v128h128v128h128v-256h-256zM256 1152v128h256v-128h-256zM512 512v128h128v-128h-128zM512 896v256h128v-256h-128zM640 128v128h128v-128h-128z M640 384v128h128v-128h-128zM768 256v128h128v-128h-128zM896 128v128h128v-128h-128zM896 384v256h128v-256h-128zM1024 0v128h128v-128h-128z" />
<glyph unicode="'" horiz-adv-x="408" d="M0 896v128h128v-128h-128zM0 1152v256h256v-384h-128v128h-128z" />
<glyph unicode="(" horiz-adv-x="536" d="M0 256v1024h128v-1024h-128zM128 128v128h128v-128h-128zM128 1280v128h128v-128h-128zM256 0v128h128v-128h-128zM256 1408v128h128v-128h-128z" />
<glyph unicode=")" horiz-adv-x="536" d="M0 0v128h128v-128h-128zM0 1408v128h128v-128h-128zM128 128v128h128v-128h-128zM128 1280v128h128v-128h-128zM256 256v1024h128v-1024h-128z" />
<glyph unicode="*" d="M0 128v128h128v-128h-128zM0 896v128h128v-128h-128zM128 256v128h128v-128h-128zM128 768v128h128v-128h-128zM256 384v128h128v128h-128v128h128v384h128v-384h128v-128h-128v-128h128v-128h-128v-384h-128v384h-128zM640 256v128h128v-128h-128zM640 768v128h128v-128 h-128zM768 128v128h128v-128h-128zM768 896v128h128v-128h-128z" />
<glyph unicode="+" horiz-adv-x="1304" d="M0 512v128h512v512h128v-512h512v-128h-512v-512h-128v512h-512z" />
<glyph unicode="," horiz-adv-x="408" d="M0 0v256h256v-384h-128v128h-128zM0 -128h128v-128h-128v128z" />
<glyph unicode="." horiz-adv-x="408" d="M0 0v256h256v-256h-256z" />
<glyph unicode="/" horiz-adv-x="792" d="M0 0v256h128v-256h-128zM128 256v256h128v-256h-128zM256 512v256h128v-256h-128zM384 768v256h128v-256h-128zM512 1024v256h128v-256h-128z" />
<glyph unicode="0" horiz-adv-x="792" d="M0 128v1024h128v-1024h-128zM128 0v128h384v-128h-384zM128 1152v128h384v-128h-384zM512 128v1024h128v-1024h-128z" />
<glyph unicode="1" horiz-adv-x="408" d="M0 1024v128h128v128h128v-1280h-128v1024h-128z" />
<glyph unicode="2" horiz-adv-x="792" d="M0 0v256h128v-128h512v-128h-640zM0 896v256h128v-256h-128zM128 256v128h128v-128h-128zM128 1152v128h384v-128h-384zM256 384v128h128v-128h-128zM384 512v128h128v-128h-128zM512 640v512h128v-512h-128z" />
<glyph unicode="3" horiz-adv-x="792" d="M0 128v256h128v-256h-128zM0 896v256h128v-256h-128zM128 0v128h384v-128h-384zM128 1152v128h384v-128h-384zM256 640v128h256v-128h-256zM512 128v512h128v-512h-128zM512 768v384h128v-384h-128z" />
<glyph unicode="4" horiz-adv-x="792" d="M0 256v384h128v-256h256v640h-128v256h256v-896h128v-128h-128v-256h-128v256h-384zM128 640v384h128v-384h-128z" />
<glyph unicode="5" horiz-adv-x="792" d="M0 128v128h128v-128h-128zM0 512v768h640v-128h-512v-384h384v-128h-384v-128h-128zM128 0v128h384v-128h-384zM512 128v512h128v-512h-128z" />
<glyph unicode="6" horiz-adv-x="792" d="M0 128v1024h128v-384h384v-128h-384v-512h-128zM128 0v128h384v-128h-384zM128 1152v128h384v-128h-384zM512 128v512h128v-512h-128zM512 1024v128h128v-128h-128z" />
<glyph unicode="7" horiz-adv-x="792" d="M0 1152v128h640v-512h-128v384h-512zM256 0v512h128v-512h-128zM384 512v256h128v-256h-128z" />
<glyph unicode="8" horiz-adv-x="792" d="M0 128v512h128v-512h-128zM0 768v384h128v-384h-128zM128 0v128h384v-128h-384zM128 640v128h384v-128h-384zM128 1152v128h384v-128h-384zM512 128v512h128v-512h-128zM512 768v384h128v-384h-128z" />
<glyph unicode="9" horiz-adv-x="792" d="M0 128v128h128v-128h-128zM0 640v512h128v-512h-128zM128 0v128h384v-128h-384zM128 512v128h384v512h128v-1024h-128v384h-384zM128 1152v128h384v-128h-384z" />
<glyph unicode=":" horiz-adv-x="408" d="M0 128v256h256v-256h-256zM0 768v256h256v-256h-256z" />
<glyph unicode="?" d="M0 768v256h128v-256h-128zM128 1024v128h128v-128h-128zM256 1152v128h384v-128h-384zM384 0v128h128v-128h-128zM384 256v256h128v-256h-128zM512 512v128h128v-128h-128zM640 640v128h128v-128h-128zM640 1024v128h128v-128h-128zM768 768v256h128v-256h-128z" />
<glyph unicode="A" horiz-adv-x="1176" d="M0 0v256h128v-256h-128zM128 256v384h128v-128h512v128h128v-384h-128v128h-512v-128h-128zM256 640v384h128v-384h-128zM384 1024v256h256v-256h-256zM640 640v384h128v-384h-128zM896 0v256h128v-256h-128z" />
<glyph unicode="B" d="M0 0v1280h640v-128h-512v-384h384v128h128v-256h-512v-512h512v-128h-640zM640 128v128h128v-128h-128zM640 512v128h128v-128h-128zM640 896v256h128v-256h-128zM768 256v256h128v-256h-128z" />
<glyph unicode="C" horiz-adv-x="1176" d="M0 256v768h128v-768h-128zM128 128v128h128v-128h-128zM128 1024v128h128v-128h-128zM256 0v128h512v-128h-512zM256 1152v128h512v-128h-512zM768 128v128h128v-128h-128zM768 1024v128h128v-128h-128zM896 256v128h128v-128h-128zM896 896v128h128v-128h-128z" />
<glyph unicode="D" d="M0 0v1280h512v-128h-384v-1024h384v-128h-512zM512 128v128h128v-128h-128zM512 1024v128h128v-128h-128zM640 256v128h128v-128h-128zM640 896v128h128v-128h-128zM768 384v512h128v-512h-128z" />
<glyph unicode="E" horiz-adv-x="920" d="M0 0v1280h768v-128h-640v-384h512v-128h-512v-512h640v-128h-768z" />
<glyph unicode="F" horiz-adv-x="920" d="M0 0v1280h768v-128h-640v-384h512v-128h-512v-640h-128z" />
<glyph unicode="G" horiz-adv-x="1176" d="M0 384v512h128v-512h-128zM128 256v128h128v-128h-128zM128 896v128h128v-128h-128zM256 128v128h128v-128h-128zM256 1024v128h128v-128h-128zM384 0v128h384v-128h-384zM384 1152v128h384v-128h-384zM512 512v128h512v-640h-128v128h-128v128h128v256h-384zM768 1024 v128h128v-128h-128zM896 896v128h128v-128h-128z" />
<glyph unicode="H" d="M0 0v1280h128v-512h640v512h128v-1280h-128v640h-640v-640h-128z" />
<glyph unicode="I" horiz-adv-x="536" d="M0 0v128h128v1024h-128v128h384v-128h-128v-1024h128v-128h-384z" />
<glyph unicode="J" horiz-adv-x="792" d="M0 128v256h128v-256h-128zM128 0v128h384v-128h-384zM512 128v1152h128v-1152h-128z" />
<glyph unicode="K" d="M0 0v1280h128v-640h128v-128h-128v-512h-128zM256 640v128h128v-128h-128zM384 768v128h128v-128h-128zM512 512v256h128v-256h-128zM512 896v128h128v-128h-128zM640 256v256h128v-256h-128zM640 1024v128h128v-128h-128zM768 0v256h128v-256h-128zM768 1152v128h128 v-128h-128z" />
<glyph unicode="L" d="M0 0v1280h128v-1152h768v-128h-896z" />
<glyph unicode="M" horiz-adv-x="1304" d="M0 0v1280h128v-256h128v-256h-128v-768h-128zM256 512v256h128v-256h-128zM384 256v256h128v-256h-128zM512 0v256h128v-256h-128zM640 256v256h128v-256h-128zM768 512v256h128v-256h-128zM896 768v256h128v256h128v-1280h-128v768h-128z" />
<glyph unicode="N" d="M0 0v1280h128v-256h128v-128h-128v-896h-128zM256 768v128h128v-128h-128zM384 640v128h128v-128h-128zM512 512v128h128v-128h-128zM640 384v128h128v768h128v-1280h-128v384h-128z" />
<glyph unicode="O" horiz-adv-x="1432" d="M0 384v512h128v-512h-128zM128 256v128h128v-128h-128zM128 896v128h128v-128h-128zM256 128v128h128v-128h-128zM256 1024v128h128v-128h-128zM384 0v128h512v-128h-512zM384 1152v128h512v-128h-512zM896 128v128h128v-128h-128zM896 1024v128h128v-128h-128zM1024 256 v128h128v-128h-128zM1024 896v128h128v-128h-128zM1152 384v512h128v-512h-128z" />
<glyph unicode="P" d="M0 0v1280h640v-128h-512v-512h512v-128h-512v-512h-128zM640 640v128h128v-128h-128zM640 1024v128h128v-128h-128zM768 768v256h128v-256h-128z" />
<glyph unicode="Q" horiz-adv-x="1432" d="M0 384v512h128v-512h-128zM128 256v128h128v-128h-128zM128 896v128h128v-128h-128zM256 128v128h128v-128h-128zM256 1024v128h128v-128h-128zM384 0v128h512v-128h-512zM384 1152v128h512v-128h-512zM640 384v128h128v-128h-128zM768 256v128h128v-128h-128zM896 128 v128h128v-128h-128zM896 1024v128h128v-128h-128zM1024 0v128h128v-128h-128zM1024 256v128h128v-128h-128zM1024 896v128h128v-128h-128zM1152 384v512h128v-512h-128z" />
<glyph unicode="R" d="M0 0v1280h640v-128h-512v-512h512v-128h-512v-512h-128zM640 384v128h128v-128h-128zM640 640v128h128v-128h-128zM640 1024v128h128v-128h-128zM768 0v384h128v-384h-128zM768 768v256h128v-256h-128z" />
<glyph unicode="S" d="M0 128v256h128v-256h-128zM0 896v256h128v-256h-128zM128 0v128h640v-128h-640zM128 768v128h128v-128h-128zM128 1152v128h640v-128h-640zM256 640v128h256v-128h-256zM512 512v128h256v-128h-256zM768 128v384h128v-384h-128zM768 1024v128h128v-128h-128z" />
<glyph unicode="T" d="M0 1152v128h896v-128h-384v-1152h-128v1152h-384z" />
<glyph unicode="U" d="M0 256v1024h128v-1024h-128zM128 128v128h128v-128h-128zM256 0v128h384v-128h-384zM640 128v128h128v-128h-128zM768 256v1024h128v-1024h-128z" />
<glyph unicode="V" d="M0 1024v256h128v-256h-128zM128 640v384h128v-384h-128zM256 256v384h128v-384h-128zM384 0v256h128v-256h-128zM512 256v384h128v-384h-128zM640 640v384h128v-384h-128zM768 1024v256h128v-256h-128z" />
<glyph unicode="W" horiz-adv-x="1816" d="M0 1024v256h128v-256h-128zM128 640v384h128v-384h-128zM256 256v384h128v-384h-128zM384 0v256h128v-256h-128zM512 256v384h128v-384h-128zM640 640v384h128v-384h-128zM768 1024v256h128v-256h-128zM896 640v384h128v-384h-128zM1024 256v384h128v-384h-128zM1152 0 v256h128v-256h-128zM1280 256v384h128v-384h-128zM1408 640v384h128v-384h-128zM1536 1024v256h128v-256h-128z" />
<glyph unicode="X" horiz-adv-x="920" d="M0 0v256h128v-256h-128zM0 1024v256h128v-256h-128zM128 256v256h128v-256h-128zM128 768v256h128v-256h-128zM256 512v256h256v-256h-256zM512 256v256h128v-256h-128zM512 768v256h128v-256h-128zM640 0v256h128v-256h-128zM640 1024v256h128v-256h-128z" />
<glyph unicode="Y" d="M0 1024v256h128v-256h-128zM128 768v256h128v-256h-128zM256 640v128h128v-128h-128zM384 0v640h128v-640h-128zM512 640v128h128v-128h-128zM640 768v256h128v-256h-128zM768 1024v256h128v-256h-128z" />
<glyph unicode="Z" d="M0 0v384h128v-256h768v-128h-896zM0 1152v128h896v-256h-128v128h-768zM128 384v128h128v-128h-128zM256 512v128h128v-128h-128zM384 640v128h128v-128h-128zM512 768v128h128v-128h-128zM640 896v128h128v-128h-128z" />
<glyph unicode="_" horiz-adv-x="1304" d="M0 0v128h1152v-128h-1152z" />
<glyph unicode="a" horiz-adv-x="920" d="M0 128v256h128v-256h-128zM0 640v128h128v-128h-128zM128 0v128h384v-128h-384zM128 384v128h128v-128h-128zM128 768v128h384v-128h-384zM256 512v128h256v128h128v-640h-128v384h-256zM640 0v128h128v-128h-128z" />
<glyph unicode="b" horiz-adv-x="920" d="M0 0v1152h128v-512h128v-128h-128v-256h128v-128h-128v-128h-128zM256 0v128h256v-128h-256zM256 640v128h256v-128h-256zM512 128v128h128v-128h-128zM512 512v128h128v-128h-128zM640 256v256h128v-256h-128z" />
<glyph unicode="c" horiz-adv-x="920" d="M0 256v384h128v-384h-128zM128 128v128h128v-128h-128zM128 640v128h128v-128h-128zM256 0v128h384v-128h-384zM256 768v128h384v-128h-384zM640 128v128h128v-128h-128zM640 640v128h128v-128h-128z" />
<glyph unicode="d" horiz-adv-x="920" d="M0 256v384h128v-384h-128zM128 128v128h128v-128h-128zM128 640v128h128v-128h-128zM256 0v128h256v-128h-256zM256 768v128h256v-128h-256zM512 128v128h128v384h-128v128h128v512h128v-1280h-128v128h-128z" />
<glyph unicode="e" horiz-adv-x="920" d="M0 128v640h128v-256h512v256h128v-384h-640v-256h-128zM128 0v128h512v-128h-512zM128 768v128h512v-128h-512zM640 128v128h128v-128h-128z" />
<glyph unicode="f" horiz-adv-x="664" d="M0 768v128h128v256h128v-256h256v-128h-256v-768h-128v768h-128zM256 1152v128h256v-128h-256z" />
<glyph unicode="g" horiz-adv-x="920" d="M0 -128h128v-128h-128v128zM0 256v512h128v-512h-128zM128 128v128h384v-128h-384zM128 -256h512v-128h-512v128zM128 768v128h640v-1152h-128v512h-128v128h128v384h-512z" />
<glyph unicode="h" horiz-adv-x="920" d="M0 0v1280h128v-512h128v-128h-128v-640h-128zM256 768v128h384v-128h-384zM640 0v768h128v-768h-128z" />
<glyph unicode="i" horiz-adv-x="280" d="M0 0v896h128v-896h-128zM0 1024v256h128v-256h-128z" />
<glyph unicode="j" horiz-adv-x="536" d="M0 -256h256v-128h-256v128zM256 -256v1152h128v-1152h-128zM256 1024v256h128v-256h-128z" />
<glyph unicode="k" horiz-adv-x="920" d="M0 0v1280h128v-896h128v-128h-128v-256h-128zM256 384v128h128v-128h-128zM384 256v128h128v-128h-128zM384 512v128h128v-128h-128zM512 128v128h128v-128h-128zM512 640v128h128v-128h-128zM640 0v128h128v-128h-128zM640 768v128h128v-128h-128z" />
<glyph unicode="l" horiz-adv-x="280" d="M0 0v1280h128v-1280h-128z" />
<glyph unicode="m" horiz-adv-x="1304" d="M0 0v896h128v-128h128v-128h-128v-640h-128zM256 768v128h256v-128h-256zM512 0v768h256v-128h-128v-640h-128zM768 768v128h256v-128h-256zM1024 0v768h128v-768h-128z" />
<glyph unicode="n" horiz-adv-x="920" d="M0 0v896h128v-128h128v-128h-128v-640h-128zM256 768v128h384v-128h-384zM640 0v768h128v-768h-128z" />
<glyph unicode="o" d="M0 256v384h128v-384h-128zM128 128v128h128v-128h-128zM128 640v128h128v-128h-128zM256 0v128h384v-128h-384zM256 768v128h384v-128h-384zM640 128v128h128v-128h-128zM640 640v128h128v-128h-128zM768 256v384h128v-384h-128z" />
<glyph unicode="p" horiz-adv-x="920" d="M0 -384v1280h128v-128h128v-128h-128v-384h128v-128h-128v-512h-128zM256 0v128h256v-128h-256zM256 768v128h256v-128h-256zM512 128v128h128v-128h-128zM512 640v128h128v-128h-128zM640 256v384h128v-384h-128z" />
<glyph unicode="q" horiz-adv-x="920" d="M0 256v384h128v-384h-128zM128 128v128h128v-128h-128zM128 640v128h128v-128h-128zM256 0v128h256v-128h-256zM256 768v128h256v-128h-256zM512 128v128h128v384h-128v128h128v128h128v-1280h-128v512h-128z" />
<glyph unicode="r" horiz-adv-x="664" d="M0 0v896h128v-128h128v-128h-128v-640h-128zM256 768v128h256v-128h-256z" />
<glyph unicode="s" horiz-adv-x="920" d="M0 128v128h128v-128h-128zM0 512v256h128v-256h-128zM128 0v128h512v-128h-512zM128 384v128h512v-128h-512zM128 768v128h512v-128h-512zM640 128v256h128v-256h-128zM640 640v128h128v-128h-128z" />
<glyph unicode="t" horiz-adv-x="664" d="M0 768v128h128v256h128v-256h256v-128h-256v-640h-128v640h-128zM256 0v128h256v-128h-256z" />
<glyph unicode="u" horiz-adv-x="920" d="M0 128v768h128v-768h-128zM128 0v128h384v-128h-384zM512 128v128h128v640h128v-896h-128v128h-128z" />
<glyph unicode="v" d="M0 640v256h128v-256h-128zM128 384v256h128v-256h-128zM256 128v256h128v-256h-128zM384 0v128h128v-128h-128zM512 128v256h128v-256h-128zM640 384v256h128v-256h-128zM768 640v256h128v-256h-128z" />
<glyph unicode="w" horiz-adv-x="1304" d="M0 640v256h128v-256h-128zM128 256v384h128v-384h-128zM256 0v256h128v-256h-128zM384 256v384h128v-384h-128zM512 640v256h128v-256h-128zM640 256v384h128v-384h-128zM768 0v256h128v-256h-128zM896 256v384h128v-384h-128zM1024 640v256h128v-256h-128z" />
<glyph unicode="x" d="M0 0v128h128v-128h-128zM0 768v128h128v-128h-128zM128 128v128h128v-128h-128zM128 640v128h128v-128h-128zM256 256v128h128v-128h-128zM256 512v128h128v-128h-128zM384 384v128h128v-128h-128zM512 256v128h128v-128h-128zM512 512v128h128v-128h-128zM640 128v128 h128v-128h-128zM640 640v128h128v-128h-128zM768 0v128h128v-128h-128zM768 768v128h128v-128h-128z" />
<glyph unicode="y" d="M0 -256h256v-128h-256v128zM0 640v256h128v-256h-128zM128 384v256h128v-256h-128zM256 -128h128v-128h-128v128zM256 128v256h128v-256h-128zM384 -128v256h128v-256h-128zM512 128v256h128v-256h-128zM640 384v256h128v-256h-128zM768 640v256h128v-256h-128z" />
<glyph unicode="z" horiz-adv-x="920" d="M0 0v256h128v-128h640v-128h-768zM0 768v128h768v-128h-128v-128h-128v128h-512zM128 256v128h128v-128h-128zM256 384v128h128v-128h-128zM384 512v128h128v-128h-128z" />
<glyph unicode="~" horiz-adv-x="1304" d="M0 512v128h128v-128h-128zM128 640v128h384v-128h-384zM512 512v128h128v-128h-128zM640 384v128h384v-128h-384zM1024 512v128h128v-128h-128z" />
<glyph unicode="&#x2000;" horiz-adv-x="768" />
<glyph unicode="&#x2001;" horiz-adv-x="1536" />
<glyph unicode="&#x2002;" horiz-adv-x="768" />
<glyph unicode="&#x2003;" horiz-adv-x="1536" />
<glyph unicode="&#x2004;" horiz-adv-x="512" />
<glyph unicode="&#x2005;" horiz-adv-x="384" />
<glyph unicode="&#x2006;" horiz-adv-x="256" />
<glyph unicode="&#x2007;" horiz-adv-x="256" />
<glyph unicode="&#x2008;" horiz-adv-x="192" />
<glyph unicode="&#x2009;" horiz-adv-x="307" />
<glyph unicode="&#x200a;" horiz-adv-x="85" />
<glyph unicode="&#x2018;" horiz-adv-x="408" d="M0 896v384h128v-128h128v-256h-256zM128 1280v128h128v-128h-128z" />
<glyph unicode="&#x2019;" horiz-adv-x="408" d="M0 896v128h128v-128h-128zM0 1152v256h256v-384h-128v128h-128z" />
<glyph unicode="&#x201c;" horiz-adv-x="792" d="M0 896v384h128v-128h128v-256h-256zM128 1280v128h128v-128h-128zM384 896v384h128v-128h128v-256h-256zM512 1280v128h128v-128h-128z" />
<glyph unicode="&#x201d;" horiz-adv-x="792" d="M0 896v128h128v-128h-128zM0 1152v256h256v-384h-128v128h-128zM384 896v128h128v-128h-128zM384 1152v256h256v-384h-128v128h-128z" />
<glyph unicode="&#x202f;" horiz-adv-x="307" />
<glyph unicode="&#x205f;" horiz-adv-x="384" />
<glyph unicode="&#x25fc;" horiz-adv-x="900" d="M0 0v900h900v-900h-900z" />
</font>
</defs>
</svg>
